<?xml version="1.0" encoding="UTF-8"?>
<svg id="Layer_2" data-name="Layer 2" xmlns="http://www.w3.org/2000/svg" viewBox="0 0 40 38.35">
  <defs>
    <style>
      .cls-1 {
        fill: #b87333;
      }
    </style>
  </defs>
  <g id="Layer_1-2" data-name="Layer 1">
    <g>
      <path class="cls-1" d="M2.3,35.77c-5.29-5.42-.8-14.56,6.78-13.97,6.29.49,9.72,7.91,6.04,13.06-3.07,4.29-9.14,4.69-12.82.92Z"/>
      <path class="cls-1" d="M37.74,35.77c-5.24,5.38-14.29,1.76-14.35-5.64-.06-7.06,8.35-11,13.71-6.33,3.53,3.07,3.95,8.58.64,11.97Z"/>
      <path class="cls-1" d="M22.74,8.7c.1.09.15.31.28.4,1.96,2.11,4.58,4.18,6.44,6.33,1.49,1.72-.4,3.99-2.49,2.24-1.77-1.47-3.33-3.57-5.03-5.13l-.35-.12-4.32,3.84c-.51.66-.69,1.27-.35,2.07.37.86,3.28,2.84,4.11,3.77.23.26.56.67.62,1.01.16.98.15,6.26-.02,7.22-.32,1.78-2.87,1.78-3.19,0-.23-1.25.27-5.65-.17-6.34-1.73-1.7-4.34-2.92-4.77-5.55-1.11-.19-2.01-.33-2.97-.98-2.76-1.87-2.79-5.81-.45-8.07,3.19-3.08,9.22-3.61,12.67-.71Z"/>
      <path class="cls-1" d="M26.87.06c5.23-.83,6.65,7.14,1.56,8.19-5.6,1.16-6.98-7.33-1.56-8.19Z"/>
    </g>
  </g>
</svg>