<?xml version="1.0" encoding="UTF-8"?>
<svg id="Layer_2" data-name="Layer 2" xmlns="http://www.w3.org/2000/svg" viewBox="0 0 784.36 246.89">
  <defs>
    <style>
      .cls-1 {
        fill: #fff;
      }

      .cls-2 {
        fill: #ccc;
      }
    </style>
  </defs>
  <g id="Layer_1-2" data-name="Layer 1">
    <g>
      <g>
        <polygon class="cls-1" points="433.79 170.45 334.5 0 294.02 0 335.97 72.01 299.13 72.01 319.16 105.68 355.58 105.68 393.3 170.45 433.79 170.45"/>
        <polygon class="cls-1" points="187.48 119.96 216.89 170.45 257.37 170.45 207.94 85.58 187.48 119.96"/>
        <path class="cls-1" d="M196.01,0l-18.96,32.55L158.09,0h-40.48l-38.56,66.2L40.48,0H0l58.8,100.95-40.48,69.5h40.48L137.85,34.75l18.96,32.55-38.56,66.2-8.18-14.04-20.45,34.38,9.67,16.61h38.12L216.89,33.65l79.68,136.8h40.48L237.77,0h-41.76Z"/>
      </g>
      <g>
        <path class="cls-2" d="M378.19,135.92c0-4.8.93-9.33,2.76-13.57,1.83-4.24,4.33-7.93,7.49-11.05,3.16-3.12,6.86-5.59,11.09-7.4,4.23-1.81,8.73-2.71,13.49-2.7,4.76,0,9.23.92,13.4,2.72,4.17,1.8,7.83,4.25,10.95,7.34,3.13,3.09,5.6,6.72,7.41,10.9,1.81,4.18,2.76,8.64,2.85,13.4l-.06,29.55c0,1.31-.46,2.43-1.35,3.35-.9.92-2.01,1.38-3.32,1.38-1.31,0-2.39-.47-3.24-1.39-.85-.92-1.27-2.04-1.27-3.35l-.06-6.27c-3.21,3.54-7,6.4-11.35,8.58-4.35,2.18-9.06,3.26-14.11,3.25-4.76,0-9.25-.93-13.47-2.76-4.22-1.83-7.91-4.31-11.06-7.45-3.15-3.14-5.63-6.82-7.45-11.04-1.81-4.23-2.71-8.72-2.71-13.47ZM387.37,135.9c0,3.5.65,6.79,1.98,9.88,1.33,3.09,3.13,5.79,5.41,8.1,2.28,2.31,4.97,4.15,8.08,5.52,3.11,1.37,6.46,2.05,10.05,2.06s6.95-.67,10.06-2.02c3.11-1.35,5.81-3.18,8.1-5.49,2.29-2.3,4.09-4.99,5.41-8.08,1.32-3.08,1.98-6.37,1.99-9.87,0-3.55-.64-6.87-1.95-9.99-1.31-3.11-3.1-5.82-5.38-8.14-2.28-2.31-4.97-4.14-8.08-5.48-3.11-1.34-6.46-2.02-10.05-2.02-3.55,0-6.88.65-9.99,1.98-3.11,1.33-5.83,3.15-8.14,5.45-2.31,2.3-4.14,5.01-5.48,8.11-1.34,3.11-2.02,6.43-2.02,9.98Z"/>
        <path class="cls-2" d="M521.68,165.46c0,1.31-.45,2.4-1.33,3.28-.88.87-1.99,1.31-3.31,1.3-1.27,0-2.35-.44-3.23-1.32-.88-.88-1.32-1.97-1.32-3.28l.06-30.79c-.08-7.76-1.81-13.72-5.17-17.88s-8.09-6.24-14.16-6.25c-2.96,0-5.75.57-8.35,1.73-2.6,1.16-4.89,2.77-6.86,4.83-1.97,2.06-3.54,4.49-4.71,7.3-1.17,2.81-1.81,5.84-1.91,9.09l-.06,31.73c0,1.31-.45,2.41-1.35,3.31-.9.9-1.98,1.34-3.25,1.34-1.26,0-2.34-.45-3.24-1.35-.9-.9-1.34-2.01-1.34-3.32l.12-59.39c0-1.26.46-2.34,1.39-3.24.92-.9,2.02-1.34,3.28-1.34,1.26,0,2.33.45,3.2,1.35.87.9,1.31,1.98,1.31,3.25v7.8c2.87-3.69,6.27-6.66,10.19-8.91,3.92-2.25,8.12-3.37,12.59-3.36,4.18,0,7.96.79,11.34,2.35,3.38,1.56,6.27,3.79,8.67,6.69,2.4,2.9,4.24,6.4,5.52,10.5,1.28,4.11,1.94,8.69,1.98,13.74l-.06,30.82Z"/>
        <path class="cls-2" d="M544.81,113.77c2.88-3.71,6.28-6.69,10.2-8.96,3.92-2.27,8.12-3.39,12.6-3.38,4.23,0,8.04.81,11.42,2.39,3.38,1.59,6.27,3.84,8.67,6.77,2.4,2.92,4.24,6.45,5.52,10.59,1.28,4.14,1.92,8.76,1.91,13.86l-.06,30.56c0,1.31-.45,2.41-1.33,3.28-.88.87-1.99,1.31-3.31,1.31-1.27,0-2.35-.44-3.23-1.32-.88-.88-1.32-1.97-1.32-3.28l.06-30.46c.02-7.87-1.67-13.92-5.06-18.15-3.39-4.23-8.15-6.36-14.27-6.37-2.96,0-5.75.57-8.35,1.73-2.6,1.16-4.89,2.77-6.86,4.83-1.97,2.06-3.54,4.5-4.72,7.31-1.17,2.82-1.81,5.85-1.91,9.1l-.06,31.77c0,1.31-.45,2.42-1.35,3.31-.9.9-1.98,1.34-3.25,1.34-1.26,0-2.34-.45-3.24-1.35-.9-.9-1.34-2.01-1.34-3.32l.17-83.94c0-1.31.45-2.42,1.35-3.31.9-.9,1.98-1.34,3.25-1.34,1.31,0,2.4.45,3.28,1.35.87.9,1.31,2.01,1.3,3.32l-.07,32.35Z"/>
        <path class="cls-2" d="M605.09,136.37c0-4.8.93-9.33,2.76-13.57,1.83-4.24,4.33-7.93,7.49-11.05,3.16-3.12,6.86-5.59,11.09-7.4,4.23-1.81,8.73-2.71,13.49-2.7,4.76,0,9.23.92,13.4,2.72,4.17,1.8,7.83,4.25,10.95,7.34,3.13,3.09,5.6,6.72,7.41,10.9,1.81,4.18,2.76,8.64,2.85,13.4l-.06,29.55c0,1.31-.46,2.43-1.35,3.35-.9.92-2.01,1.38-3.32,1.38-1.31,0-2.39-.47-3.24-1.39-.85-.92-1.27-2.04-1.27-3.35l-.06-6.27c-3.21,3.54-7,6.4-11.35,8.58-4.35,2.18-9.06,3.26-14.11,3.25-4.76,0-9.25-.93-13.47-2.76-4.22-1.83-7.91-4.31-11.06-7.45-3.15-3.14-5.63-6.82-7.45-11.04-1.81-4.23-2.72-8.72-2.71-13.47ZM614.28,136.36c0,3.5.65,6.79,1.98,9.88,1.33,3.09,3.13,5.79,5.41,8.1,2.28,2.31,4.97,4.15,8.08,5.52,3.11,1.37,6.46,2.05,10.05,2.06s6.95-.67,10.06-2.02c3.11-1.35,5.81-3.18,8.1-5.49,2.29-2.3,4.09-4.99,5.41-8.08,1.32-3.08,1.98-6.37,1.99-9.87,0-3.55-.64-6.87-1.95-9.99-1.31-3.11-3.1-5.82-5.38-8.14-2.28-2.31-4.97-4.14-8.08-5.48-3.11-1.34-6.46-2.02-10.05-2.02-3.55,0-6.88.65-9.99,1.98-3.11,1.33-5.83,3.15-8.14,5.45-2.31,2.3-4.14,5.01-5.48,8.11-1.34,3.11-2.02,6.43-2.02,9.98Z"/>
        <path class="cls-2" d="M684.96,136.53c0-4.8.93-9.33,2.76-13.57,1.83-4.24,4.33-7.93,7.49-11.05,3.16-3.12,6.86-5.59,11.09-7.4,4.23-1.81,8.73-2.71,13.49-2.7s9.23.92,13.4,2.72c4.17,1.8,7.83,4.25,10.95,7.34,3.13,3.09,5.6,6.72,7.41,10.9,1.81,4.18,2.76,8.64,2.85,13.4l-.06,29.55c0,1.31-.46,2.43-1.35,3.35-.9.92-2.01,1.38-3.32,1.38-1.31,0-2.39-.47-3.24-1.39-.85-.92-1.27-2.04-1.27-3.35l-.06-6.27c-3.21,3.54-7,6.4-11.35,8.58-4.35,2.18-9.06,3.26-14.11,3.25-4.76,0-9.25-.93-13.47-2.76s-7.91-4.31-11.06-7.45c-3.15-3.14-5.63-6.82-7.45-11.04-1.81-4.23-2.72-8.72-2.71-13.47ZM694.14,136.52c0,3.5.65,6.79,1.98,9.88,1.33,3.09,3.13,5.79,5.41,8.1,2.28,2.31,4.97,4.15,8.08,5.52,3.11,1.37,6.46,2.05,10.05,2.06s6.95-.67,10.06-2.02c3.11-1.35,5.81-3.18,8.1-5.48,2.29-2.3,4.09-5,5.41-8.08,1.32-3.08,1.98-6.37,1.99-9.87,0-3.55-.64-6.87-1.95-9.99-1.31-3.11-3.1-5.82-5.38-8.14-2.28-2.31-4.97-4.14-8.08-5.48-3.11-1.34-6.46-2.02-10.05-2.02-3.55,0-6.88.65-9.99,1.98-3.11,1.33-5.83,3.15-8.14,5.45-2.31,2.3-4.14,5.01-5.48,8.11-1.34,3.11-2.02,6.43-2.02,9.98Z"/>
        <path class="cls-2" d="M771.44,161.12c1.14-1.14,2.54-1.71,4.19-1.7s3.05.58,4.19,1.72c1.14,1.14,1.71,2.57,1.7,4.27,0,1.65-.58,3.05-1.72,4.19-1.15,1.14-2.54,1.71-4.19,1.7s-3.05-.58-4.19-1.72c-1.14-1.14-1.71-2.54-1.71-4.19,0-1.7.58-3.12,1.72-4.26Z"/>
      </g>
      <g>
        <path class="cls-1" d="M4.05,246.42v-32h3.44v32h-3.44Z"/>
        <path class="cls-1" d="M74.61,246.42v-32h2.47l.98,4.05v27.96h-3.44ZM96.75,246.42l-20.19-27.44.51-4.56,20.19,27.44-.51,4.56ZM96.75,246.42l-.98-3.86v-28.14h3.44v32h-2.46Z"/>
        <path class="cls-1" d="M166.29,246.42v-32h3.44v32h-3.44ZM168.44,246.42v-3.16h9.4c2.51,0,4.73-.55,6.65-1.65,1.92-1.1,3.42-2.62,4.49-4.56,1.07-1.94,1.6-4.16,1.6-6.68s-.54-4.69-1.63-6.63c-1.09-1.94-2.59-3.45-4.51-4.54-1.92-1.09-4.12-1.63-6.61-1.63h-9.3v-3.16h9.4c2.33,0,4.47.4,6.44,1.19,1.97.79,3.69,1.91,5.16,3.35,1.47,1.44,2.61,3.13,3.42,5.07.81,1.94,1.21,4.07,1.21,6.4s-.4,4.37-1.21,6.33-1.94,3.65-3.4,5.09c-1.46,1.44-3.17,2.57-5.14,3.37-1.97.81-4.1,1.21-6.4,1.21h-9.58Z"/>
        <path class="cls-1" d="M271.38,246.89c-2.33,0-4.4-.52-6.21-1.56-1.81-1.04-3.25-2.47-4.3-4.28-1.05-1.81-1.58-3.85-1.58-6.12v-20.51h3.44v20.33c0,1.8.38,3.37,1.14,4.7.76,1.33,1.79,2.36,3.09,3.07s2.78,1.07,4.42,1.07,3.11-.36,4.4-1.07,2.3-1.74,3.05-3.07c.74-1.33,1.12-2.88,1.12-4.65v-20.37h3.44v20.56c0,2.26-.52,4.3-1.56,6.09-1.04,1.8-2.46,3.22-4.28,4.26-1.81,1.04-3.87,1.56-6.16,1.56Z"/>
        <path class="cls-1" d="M358.59,246.89c-2.51,0-4.67-.47-6.47-1.4-1.8-.93-3.37-2.26-4.7-4l2.37-2.33c1.08,1.52,2.35,2.65,3.79,3.4,1.44.74,3.15,1.12,5.14,1.12s3.7-.46,4.95-1.4c1.26-.93,1.88-2.22,1.88-3.86,0-1.27-.29-2.32-.86-3.14-.57-.82-1.34-1.49-2.3-2-.96-.51-2.01-.97-3.14-1.37-1.13-.4-2.27-.83-3.42-1.28-1.15-.45-2.2-1.01-3.14-1.67-.95-.67-1.71-1.54-2.3-2.6-.59-1.07-.88-2.43-.88-4.07,0-1.74.42-3.22,1.26-4.47.84-1.24,1.99-2.19,3.46-2.86,1.47-.67,3.14-1,5-1,2.08,0,3.93.4,5.56,1.21,1.63.81,2.98,1.89,4.07,3.26l-2.37,2.37c-.99-1.21-2.08-2.12-3.26-2.72-1.18-.6-2.54-.91-4.09-.91-1.86,0-3.35.43-4.47,1.3-1.12.87-1.67,2.08-1.67,3.63,0,1.18.29,2.14.86,2.88.57.74,1.34,1.36,2.3,1.86.96.5,2.01.94,3.14,1.33,1.13.39,2.27.81,3.42,1.28,1.15.47,2.19,1.05,3.14,1.77.95.71,1.71,1.62,2.3,2.72.59,1.1.88,2.5.88,4.21,0,2.76-.94,4.91-2.81,6.44-1.88,1.54-4.43,2.3-7.65,2.3Z"/>
        <path class="cls-1" d="M430.46,217.54v-3.12h26v3.12h-26ZM441.77,246.42v-31.12h3.44v31.12h-3.44Z"/>
        <path class="cls-1" d="M521.17,246.42v-32h3.44v32h-3.44ZM523.4,232.14v-2.93h9.26c2.11,0,3.73-.54,4.86-1.6,1.13-1.07,1.7-2.49,1.7-4.26s-.56-3.15-1.67-4.26c-1.12-1.1-2.73-1.65-4.84-1.65h-9.3v-3.02h9.3c2.08,0,3.86.38,5.35,1.14,1.49.76,2.63,1.81,3.42,3.14.79,1.33,1.19,2.85,1.19,4.56,0,1.8-.4,3.36-1.19,4.67-.79,1.32-1.93,2.35-3.42,3.09-1.49.74-3.27,1.12-5.35,1.12h-9.3ZM540.52,246.42l-12-14.79,3.35-1.07,13.07,15.86h-4.42Z"/>
        <path class="cls-1" d="M608.9,246.42v-32h3.44v32h-3.44Z"/>
        <path class="cls-1" d="M679.46,246.42v-32h3.44v32h-3.44ZM681.74,217.54v-3.12h18.56v3.12h-18.56ZM681.74,231.54v-3.02h17.35v3.02h-17.35ZM681.74,246.42v-3.12h18.84v3.12h-18.84Z"/>
        <path class="cls-1" d="M773.89,246.89c-2.51,0-4.67-.47-6.47-1.4-1.8-.93-3.37-2.26-4.7-4l2.37-2.33c1.08,1.52,2.35,2.65,3.79,3.4,1.44.74,3.16,1.12,5.14,1.12s3.7-.46,4.95-1.4c1.26-.93,1.88-2.22,1.88-3.86,0-1.27-.29-2.32-.86-3.14-.57-.82-1.34-1.49-2.3-2-.96-.51-2.01-.97-3.14-1.37-1.13-.4-2.27-.83-3.42-1.28-1.15-.45-2.19-1.01-3.14-1.67-.95-.67-1.71-1.54-2.3-2.6-.59-1.07-.88-2.43-.88-4.07,0-1.74.42-3.22,1.26-4.47.84-1.24,1.99-2.19,3.46-2.86,1.47-.67,3.14-1,5-1,2.08,0,3.93.4,5.56,1.21,1.63.81,2.98,1.89,4.07,3.26l-2.37,2.37c-.99-1.21-2.08-2.12-3.26-2.72-1.18-.6-2.54-.91-4.09-.91-1.86,0-3.35.43-4.46,1.3s-1.67,2.08-1.67,3.63c0,1.18.29,2.14.86,2.88.57.74,1.34,1.36,2.3,1.86.96.5,2.01.94,3.14,1.33,1.13.39,2.27.81,3.42,1.28,1.15.47,2.19,1.05,3.14,1.77.95.71,1.71,1.62,2.3,2.72.59,1.1.88,2.5.88,4.21,0,2.76-.94,4.91-2.81,6.44s-4.43,2.3-7.65,2.3Z"/>
      </g>
    </g>
  </g>
</svg>