<?xml version="1.0" encoding="UTF-8"?>
<svg id="Layer_2" data-name="Layer 2" xmlns="http://www.w3.org/2000/svg" viewBox="0 0 40 31.61">
  <defs>
    <style>
      .cls-1 {
        fill: #333;
      }
    </style>
  </defs>
  <g id="Layer_1-2" data-name="Layer 1">
    <g>
      <path class="cls-1" d="M28.04,3.41c-1.82.29-3.2,1.3-4.44,2.59-3.43-2.08-7.99-.8-9.68,2.86-.77,1.68-.51,3.23-.49,5.02,1.5,1.04,3.19,1.69,5.02,1.89.71,1.96,1.91,3.91,3.96,4.64.16.21-.89.36-1.06.38-4.34.36-8.75-1.01-12.03-3.86-3.3,1.45-6.48,3.81-2.21,6.71s11.37,3.36,16.36,2.9c2.78-.26,8.72-1.6,10.7-3.56.69-.68,1-1.7,1.49-2.26.65-.73,1.94-1.15,2.93-2.32.2-.24.27-.73.63-.62,3.13,6.74-4.01,11.02-9.51,12.63-7.6,2.22-23.57,1.85-28.42-5.58-3.92-6,1.8-10.93,7.05-12.92-.2-9.5,10.81-15.36,18.56-9.68.19.14,1.29.97,1.14,1.18Z"/>
      <path class="cls-1" d="M29.14,6.7c2.17-.03,3.64,1.62,3.71,3.72,1.03.3,1.73.32,2.57,1.06,1.82,1.58,1.6,4.67-.54,5.84-.63.34-1.34.26-1.97.53-.19.56-.2,1.13-.44,1.69-1.17,2.78-5.38,2.78-6.54.04-.26-.61-.23-1.12-.4-1.73-.54-.26-1.03-.15-1.63-.37-2.91-1.09-2.84-5.43,0-6.63.55-.23,1.15-.2,1.7-.43-.1-2.03,1.52-3.7,3.53-3.73ZM28.63,11.69c-2.54.44-2.56,4.55-.02,4.96,4.17.68,3.99-5.64.02-4.96Z"/>
    </g>
  </g>
</svg>