<?xml version="1.0" encoding="UTF-8"?>
<svg id="Layer_2" data-name="Layer 2" xmlns="http://www.w3.org/2000/svg" viewBox="0 0 37.93 38">
  <defs>
    <style>
      .cls-1 {
        fill: #b87333;
      }
    </style>
  </defs>
  <g id="Layer_1-2" data-name="Layer 1">
    <path class="cls-1" d="M18.21.03c8.11-.45,15.94,5,18.59,12.59,5.6,16.06-10.82,30.82-26.16,23.42C-6.93,27.55-1.59,1.13,18.21.03ZM32.02,13.54c-.88-2.56-2.99-4.97-5.24-6.46-6.65-4.42-15.95-2.26-20.05,4.53-.14.24-.86,1.61-.86,1.76,0,.32.99.43,1.28.49,4.72,1.06,10.11,2.39,14.9,1.66,3.31-.5,6.64-1.47,9.96-1.99ZM15.86,32.78c-.29-1.58,0-3.22-.11-4.81-.14-1.83-1.98-5.3-3.46-6.4-1.93-1.45-5.3-1.48-7.6-2.09.22,5.48,3.67,10.61,8.76,12.68.35.14,2.26.83,2.41.62ZM33.21,19.48c-2.95.73-6.62.59-8.67,3.15-.66.82-1.95,3.21-2.21,4.21-.47,1.86.08,4.05-.29,5.94.15.21,2.06-.48,2.41-.62,5.12-2.08,8.52-7.19,8.76-12.68Z"/>
  </g>
</svg>