<?xml version="1.0" encoding="UTF-8"?>
<svg id="Layer_2" xmlns="http://www.w3.org/2000/svg" version="1.1" viewBox="0 0 791.2 258.3">
  <!-- Generator: Adobe Illustrator 29.2.1, SVG Export Plug-In . SVG Version: 2.1.0 Build 116)  -->
  <defs>
    <style>
      .st0 {
        fill: #818181;
      }

      .st1 {
        fill: #333;
      }
    </style>
  </defs>
  <g>
    <polygon class="st1" points="437.2 176.2 337.9 5.7 297.5 5.7 339.4 77.7 302.6 77.7 322.6 111.4 359 111.4 396.7 176.2 437.2 176.2"/>
    <polygon class="st1" points="190.9 125.7 220.3 176.2 260.8 176.2 211.4 91.3 190.9 125.7"/>
    <path class="st1" d="M199.4,5.7l-19,32.6-19-32.6h-40.5l-38.6,66.2L43.9,5.7H3.4l58.8,101-40.5,69.5h40.5L141.3,40.5l19,32.6-38.6,66.2-8.2-14-20.5,34.4,9.7,16.6h38.1L220.3,39.4l79.7,136.8h40.5L241.2,5.7h-41.8Z"/>
  </g>
  <g>
    <path class="st0" d="M381.6,141.6c0-4.8.9-9.3,2.8-13.6,1.8-4.2,4.3-7.9,7.5-11,3.2-3.1,6.9-5.6,11.1-7.4,4.2-1.8,8.7-2.7,13.5-2.7,4.8,0,9.2.9,13.4,2.7,4.2,1.8,7.8,4.2,11,7.3,3.1,3.1,5.6,6.7,7.4,10.9,1.8,4.2,2.8,8.6,2.9,13.4v29.6c0,1.3-.5,2.4-1.4,3.3-.9.9-2,1.4-3.3,1.4-1.3,0-2.4-.5-3.2-1.4-.8-.9-1.3-2-1.3-3.4v-6.3c-3.3,3.5-7.1,6.4-11.4,8.6-4.4,2.2-9.1,3.3-14.1,3.3-4.8,0-9.3-.9-13.5-2.8s-7.9-4.3-11.1-7.4c-3.2-3.1-5.6-6.8-7.4-11-1.8-4.2-2.7-8.7-2.7-13.5ZM390.8,141.6c0,3.5.7,6.8,2,9.9,1.3,3.1,3.1,5.8,5.4,8.1,2.3,2.3,5,4.2,8.1,5.5,3.1,1.4,6.5,2.1,10.1,2.1,3.6,0,6.9-.7,10.1-2,3.1-1.4,5.8-3.2,8.1-5.5,2.3-2.3,4.1-5,5.4-8.1,1.3-3.1,2-6.4,2-9.9,0-3.5-.6-6.9-1.9-10-1.3-3.1-3.1-5.8-5.4-8.1-2.3-2.3-5-4.1-8.1-5.5-3.1-1.3-6.5-2-10.1-2-3.5,0-6.9.7-10,2-3.1,1.3-5.8,3.1-8.1,5.4-2.3,2.3-4.1,5-5.5,8.1-1.3,3.1-2,6.4-2,10Z"/>
    <path class="st0" d="M525.1,171.2c0,1.3-.4,2.4-1.3,3.3-.9.9-2,1.3-3.3,1.3-1.3,0-2.4-.4-3.2-1.3-.9-.9-1.3-2-1.3-3.3v-30.8c0-7.8-1.7-13.7-5.1-17.9-3.4-4.2-8.1-6.2-14.2-6.3-3,0-5.7.6-8.3,1.7-2.6,1.2-4.9,2.8-6.9,4.8-2,2.1-3.5,4.5-4.7,7.3-1.2,2.8-1.8,5.8-1.9,9.1v31.7c0,1.3-.5,2.4-1.4,3.3s-2,1.3-3.2,1.3c-1.3,0-2.3-.5-3.2-1.4-.9-.9-1.3-2-1.3-3.3v-59.4c.1-1.3.6-2.3,1.5-3.2.9-.9,2-1.3,3.3-1.3,1.3,0,2.3.5,3.2,1.4.9.9,1.3,2,1.3,3.2v7.8c2.9-3.7,6.3-6.7,10.2-8.9s8.1-3.4,12.6-3.4c4.2,0,8,.8,11.3,2.4,3.4,1.6,6.3,3.8,8.7,6.7,2.4,2.9,4.2,6.4,5.5,10.5,1.3,4.1,1.9,8.7,2,13.7v30.8Z"/>
    <path class="st0" d="M548.2,119.5c2.9-3.7,6.3-6.7,10.2-9,3.9-2.3,8.1-3.4,12.6-3.4,4.2,0,8,.8,11.4,2.4,3.4,1.6,6.3,3.8,8.7,6.8,2.4,2.9,4.2,6.5,5.5,10.6,1.3,4.1,1.9,8.8,1.9,13.9v30.6c0,1.3-.5,2.4-1.4,3.3s-2,1.3-3.3,1.3c-1.3,0-2.4-.4-3.2-1.3-.9-.9-1.3-2-1.3-3.3v-30.5c0-7.9-1.6-13.9-5-18.2-3.4-4.2-8.1-6.4-14.3-6.4-3,0-5.7.6-8.3,1.7-2.6,1.2-4.9,2.8-6.9,4.8-2,2.1-3.5,4.5-4.7,7.3-1.2,2.8-1.8,5.9-1.9,9.1v31.8c0,1.3-.5,2.4-1.4,3.3-.9.9-2,1.3-3.2,1.3-1.3,0-2.3-.5-3.2-1.4-.9-.9-1.3-2-1.3-3.3l.2-83.9c0-1.3.5-2.4,1.4-3.3.9-.9,2-1.3,3.2-1.3,1.3,0,2.4.5,3.3,1.4.9.9,1.3,2,1.3,3.3v32.4Z"/>
    <path class="st0" d="M608.5,142.1c0-4.8.9-9.3,2.8-13.6,1.8-4.2,4.3-7.9,7.5-11,3.2-3.1,6.9-5.6,11.1-7.4s8.7-2.7,13.5-2.7c4.8,0,9.2.9,13.4,2.7,4.2,1.8,7.8,4.2,11,7.3,3.1,3.1,5.6,6.7,7.4,10.9,1.8,4.2,2.8,8.6,2.9,13.4v29.6c0,1.3-.5,2.4-1.4,3.3-.9.9-2,1.4-3.3,1.4-1.3,0-2.4-.5-3.2-1.4-.8-.9-1.3-2-1.3-3.4v-6.3c-3.3,3.5-7.1,6.4-11.4,8.6-4.4,2.2-9.1,3.3-14.1,3.3-4.8,0-9.3-.9-13.5-2.8s-7.9-4.3-11.1-7.4c-3.2-3.1-5.6-6.8-7.4-11-1.8-4.2-2.7-8.7-2.7-13.5ZM617.7,142.1c0,3.5.7,6.8,2,9.9,1.3,3.1,3.1,5.8,5.4,8.1,2.3,2.3,5,4.2,8.1,5.5s6.5,2.1,10.1,2.1c3.6,0,6.9-.7,10.1-2,3.1-1.4,5.8-3.2,8.1-5.5,2.3-2.3,4.1-5,5.4-8.1,1.3-3.1,2-6.4,2-9.9,0-3.5-.6-6.9-1.9-10-1.3-3.1-3.1-5.8-5.4-8.1-2.3-2.3-5-4.1-8.1-5.5-3.1-1.3-6.5-2-10.1-2-3.5,0-6.9.7-10,2-3.1,1.3-5.8,3.1-8.1,5.4-2.3,2.3-4.1,5-5.5,8.1-1.3,3.1-2,6.4-2,10Z"/>
    <path class="st0" d="M688.4,142.3c0-4.8.9-9.3,2.8-13.6s4.3-7.9,7.5-11c3.2-3.1,6.9-5.6,11.1-7.4,4.2-1.8,8.7-2.7,13.5-2.7,4.8,0,9.2.9,13.4,2.7,4.2,1.8,7.8,4.2,11,7.3,3.1,3.1,5.6,6.7,7.4,10.9,1.8,4.2,2.8,8.6,2.9,13.4v29.6c0,1.3-.5,2.4-1.4,3.3-.9.9-2,1.4-3.3,1.4-1.3,0-2.4-.5-3.2-1.4-.8-.9-1.3-2-1.3-3.4v-6.3c-3.3,3.5-7.1,6.4-11.4,8.6-4.4,2.2-9.1,3.3-14.1,3.3-4.8,0-9.3-.9-13.5-2.8s-7.9-4.3-11.1-7.4c-3.2-3.1-5.6-6.8-7.4-11-1.8-4.2-2.7-8.7-2.7-13.5ZM697.6,142.2c0,3.5.7,6.8,2,9.9,1.3,3.1,3.1,5.8,5.4,8.1,2.3,2.3,5,4.2,8.1,5.5,3.1,1.4,6.5,2.1,10.1,2.1,3.6,0,6.9-.7,10.1-2,3.1-1.4,5.8-3.2,8.1-5.5s4.1-5,5.4-8.1c1.3-3.1,2-6.4,2-9.9,0-3.5-.6-6.9-1.9-10-1.3-3.1-3.1-5.8-5.4-8.1-2.3-2.3-5-4.1-8.1-5.5-3.1-1.3-6.5-2-10.1-2-3.5,0-6.9.7-10,2-3.1,1.3-5.8,3.1-8.1,5.4-2.3,2.3-4.1,5-5.5,8.1-1.3,3.1-2,6.4-2,10Z"/>
    <path class="st0" d="M774.9,166.8c1.1-1.1,2.5-1.7,4.2-1.7,1.7,0,3,.6,4.2,1.7,1.1,1.1,1.7,2.6,1.7,4.3,0,1.7-.6,3-1.7,4.2-1.1,1.1-2.5,1.7-4.2,1.7-1.7,0-3-.6-4.2-1.7-1.1-1.1-1.7-2.5-1.7-4.2,0-1.7.6-3.1,1.7-4.3Z"/>
  </g>
  <g>
    <path class="st1" d="M7.5,252.1v-32h3.4v32h-3.4Z"/>
    <path class="st1" d="M78,252.1v-32h2.5l1,4v28h-3.4ZM100.2,252.1l-20.2-27.4.5-4.6,20.2,27.4-.5,4.6ZM100.2,252.1l-1-3.9v-28.1h3.4v32h-2.5Z"/>
    <path class="st1" d="M169.7,252.1v-32h3.4v32h-3.4ZM171.9,252.1v-3.2h9.4c2.5,0,4.7-.5,6.7-1.7,1.9-1.1,3.4-2.6,4.5-4.6,1.1-1.9,1.6-4.2,1.6-6.7s-.5-4.7-1.6-6.6c-1.1-1.9-2.6-3.4-4.5-4.5-1.9-1.1-4.1-1.6-6.6-1.6h-9.3v-3.2h9.4c2.3,0,4.5.4,6.4,1.2,2,.8,3.7,1.9,5.2,3.3,1.5,1.4,2.6,3.1,3.4,5.1.8,1.9,1.2,4.1,1.2,6.4s-.4,4.4-1.2,6.3c-.8,2-1.9,3.7-3.4,5.1-1.5,1.4-3.2,2.6-5.1,3.4-2,.8-4.1,1.2-6.4,1.2h-9.6Z"/>
    <path class="st1" d="M274.8,252.6c-2.3,0-4.4-.5-6.2-1.6s-3.2-2.5-4.3-4.3c-1.1-1.8-1.6-3.9-1.6-6.1v-20.5h3.4v20.3c0,1.8.4,3.4,1.1,4.7.8,1.3,1.8,2.4,3.1,3.1,1.3.7,2.8,1.1,4.4,1.1s3.1-.4,4.4-1.1c1.3-.7,2.3-1.7,3-3.1.7-1.3,1.1-2.9,1.1-4.7v-20.4h3.4v20.6c0,2.3-.5,4.3-1.6,6.1-1,1.8-2.5,3.2-4.3,4.3-1.8,1-3.9,1.6-6.2,1.6Z"/>
    <path class="st1" d="M362,252.6c-2.5,0-4.7-.5-6.5-1.4-1.8-.9-3.4-2.3-4.7-4l2.4-2.3c1.1,1.5,2.3,2.7,3.8,3.4s3.2,1.1,5.1,1.1,3.7-.5,5-1.4,1.9-2.2,1.9-3.9-.3-2.3-.9-3.1c-.6-.8-1.3-1.5-2.3-2-1-.5-2-1-3.1-1.4-1.1-.4-2.3-.8-3.4-1.3-1.1-.4-2.2-1-3.1-1.7-.9-.7-1.7-1.5-2.3-2.6-.6-1.1-.9-2.4-.9-4.1s.4-3.2,1.3-4.5c.8-1.2,2-2.2,3.5-2.9,1.5-.7,3.1-1,5-1s3.9.4,5.6,1.2c1.6.8,3,1.9,4.1,3.3l-2.4,2.4c-1-1.2-2.1-2.1-3.3-2.7-1.2-.6-2.5-.9-4.1-.9s-3.3.4-4.5,1.3c-1.1.9-1.7,2.1-1.7,3.6s.3,2.1.9,2.9c.6.7,1.3,1.4,2.3,1.9,1,.5,2,.9,3.1,1.3,1.1.4,2.3.8,3.4,1.3,1.1.5,2.2,1.1,3.1,1.8.9.7,1.7,1.6,2.3,2.7.6,1.1.9,2.5.9,4.2,0,2.8-.9,4.9-2.8,6.4-1.9,1.5-4.4,2.3-7.7,2.3Z"/>
    <path class="st1" d="M433.9,223.3v-3.1h26v3.1h-26ZM445.2,252.1v-31.1h3.4v31.1h-3.4Z"/>
    <path class="st1" d="M524.6,252.1v-32h3.4v32h-3.4ZM526.8,237.9v-2.9h9.3c2.1,0,3.7-.5,4.9-1.6,1.1-1.1,1.7-2.5,1.7-4.3s-.6-3.2-1.7-4.3c-1.1-1.1-2.7-1.7-4.8-1.7h-9.3v-3h9.3c2.1,0,3.9.4,5.3,1.1,1.5.8,2.6,1.8,3.4,3.1.8,1.3,1.2,2.9,1.2,4.6s-.4,3.4-1.2,4.7c-.8,1.3-1.9,2.3-3.4,3.1-1.5.7-3.3,1.1-5.3,1.1h-9.3ZM544,252.1l-12-14.8,3.3-1.1,13.1,15.9h-4.4Z"/>
    <path class="st1" d="M612.3,252.1v-32h3.4v32h-3.4Z"/>
    <path class="st1" d="M682.9,252.1v-32h3.4v32h-3.4ZM685.2,223.3v-3.1h18.6v3.1h-18.6ZM685.2,237.3v-3h17.4v3h-17.4ZM685.2,252.1v-3.1h18.8v3.1h-18.8Z"/>
    <path class="st1" d="M777.3,252.6c-2.5,0-4.7-.5-6.5-1.4-1.8-.9-3.4-2.3-4.7-4l2.4-2.3c1.1,1.5,2.3,2.7,3.8,3.4s3.2,1.1,5.1,1.1,3.7-.5,5-1.4,1.9-2.2,1.9-3.9-.3-2.3-.9-3.1c-.6-.8-1.3-1.5-2.3-2s-2-1-3.1-1.4c-1.1-.4-2.3-.8-3.4-1.3-1.1-.4-2.2-1-3.1-1.7-.9-.7-1.7-1.5-2.3-2.6-.6-1.1-.9-2.4-.9-4.1s.4-3.2,1.3-4.5c.8-1.2,2-2.2,3.5-2.9s3.1-1,5-1,3.9.4,5.6,1.2c1.6.8,3,1.9,4.1,3.3l-2.4,2.4c-1-1.2-2.1-2.1-3.3-2.7-1.2-.6-2.5-.9-4.1-.9s-3.3.4-4.5,1.3c-1.1.9-1.7,2.1-1.7,3.6s.3,2.1.9,2.9c.6.7,1.3,1.4,2.3,1.9,1,.5,2,.9,3.1,1.3,1.1.4,2.3.8,3.4,1.3,1.1.5,2.2,1.1,3.1,1.8.9.7,1.7,1.6,2.3,2.7.6,1.1.9,2.5.9,4.2,0,2.8-.9,4.9-2.8,6.4-1.9,1.5-4.4,2.3-7.7,2.3Z"/>
  </g>
</svg>