<?xml version="1.0" encoding="UTF-8"?>
<svg id="Layer_2" data-name="Layer 2" xmlns="http://www.w3.org/2000/svg" viewBox="0 0 43.03 38.44">
  <defs>
    <style>
      .cls-1 {
        fill: #b87333;
      }
    </style>
  </defs>
  <g id="Layer_1-2" data-name="Layer 1">
    <path class="cls-1" d="M22.65,23.27l6.97-3.45.61-19.22c.25-.33.52-.49.93-.54.69-.08,4.37-.1,4.91.06.2.06.48.3.59.49.43.72.18,4.32.21,5.43.05,1.99.23,4.04.28,6.03.08,3.02,0,6.04.13,9.06.15.2,3.87-2.13,4.55-2.22.57-.08,1.12.4,1.21.96l-.03,17.8c-.18.54-.68.76-1.23.78H1.38c-.7-.01-1.28-.4-1.28-1.14.28-3.9-.34-8.25,0-12.09.03-.35.1-.6.27-.9l11.05-5.42c.32-.04,1.03.59,1.03.83v3.55l6.15-2.97.02-10.11c-.39-1.94,4.03-1.66,4.03-.67v13.75ZM7.49,29.84h-2.82v4.02h2.82v-4.02ZM15.27,29.84h-2.82v4.02h2.82v-4.02ZM23.05,33.87v-3.82l-.2-.2h-2.75v4.02h2.95ZM30.7,29.84h-2.82v4.02h2.82v-4.02Z"/>
  </g>
</svg>