<?xml version="1.0" encoding="UTF-8"?>
<svg id="Layer_2" data-name="Layer 2" xmlns="http://www.w3.org/2000/svg" viewBox="0 0 45.68 38">
  <defs>
    <style>
      .cls-1 {
        fill: #333;
      }
    </style>
  </defs>
  <g id="Layer_1-2" data-name="Layer 1">
    <g>
      <path class="cls-1" d="M32.74,4.33c1.08-2.64,5.12-3.75,5.42.07.1,1.23.22,3.85-.79,4.64-1.08.85-1.8.19-2.92.22l3.05,7.78c.43.34,5.25.03,6.29.12,2.48.23,2.56,3.45,0,3.71-3.11.31-5.56-.47-8.67.87-4.75,2.05-5.57,8.26-11.55,8.68-2.05.14-4.28-.12-6.35,0,.14,2.32-.62,4.56-2.42,6.06-3.68,3.07-9.45,1.32-10.62-3.35-.32-1.29-.18-2.32-.09-3.61-2.09-1.39-3.63-3.33-3.93-5.9-.6-5.1.4-11.48,6.61-12.13,4.25-.44,9.31-.24,11.43,4.06l4.37,10.88c2.95.87,4.83-3,6.55-4.85,1.41-1.51,2.97-2.51,4.77-3.5l-4.49-11.46c-.67-1.74-1.71-2.6-3.56-2.85-.4-.05-.85.04-1.27-.01-2.2-.3-2.12-3.3-.12-3.66,2.13-.39,4.8.52,6.38,1.97.69.64,1.04,1.58,1.58,2.13.12.12.13.2.35.15ZM7.49,15.2c-1.6.17-3.21,1.22-3.5,2.91-.17,1-.16,4.49-.02,5.51.19,1.38,1.67,2.78,3.05,2.93l11.33.08.12-.4c-1.35-2.73-2.14-6.07-3.51-8.75-.38-.74-1.1-1.63-1.88-1.97-1.14-.5-4.3-.45-5.59-.31Z"/>
      <path class="cls-1" d="M38.27,24.74c5.75-.67,9.56,5.98,6.08,10.64-3.1,4.14-9.8,3.19-11.53-1.7-1.42-4.02,1.19-8.44,5.45-8.94Z"/>
    </g>
  </g>
</svg>