<?xml version="1.0" encoding="UTF-8"?>
<svg id="Layer_2" data-name="Layer 2" xmlns="http://www.w3.org/2000/svg" viewBox="0 0 40 39.95">
  <defs>
    <style>
      .cls-1 {
        fill: #333;
      }
    </style>
  </defs>
  <g id="Layer_1-2" data-name="Layer 1">
    <g>
      <path class="cls-1" d="M26.89,13.04l-4.51,6.06,4.32,3.7c2.88,3.09,1.24,8.01,1.71,11.87,2.47.79,5.17,3.3,7.67,1.27.47-.32.62-.92.94-1.31,1.38-1.68,3.67-.14,2.73,1.86-1.62,3.48-5.65,4.15-8.95,2.86-9.21-3.59-18.29-8.44-27.45-12.22-2.7-1.56-3.97-4.69-3.06-7.7.2-.65.51-1.46,1.19-1.69.79-.27,1.76-.04,2.09.79.44,1.08-.14,1.51-.22,2.46-.13,1.6.54,2.7,1.92,3.47.34.19,1.97.88,2.24.83,1.46-.83,3.18-1.44,4.6-2.29.67-.4,1.12-.66,1.24-1.52.24-1.79-.17-4.03.01-5.87.24-2.45,3.34-5.08,4.63-7.14-2.99-.04-5.25-.34-7.57-2.32-.6-.51-3.48-3.34-3.64-3.87-.45-1.51,1.04-2.7,2.37-1.99.82.44,2.86,2.9,3.83,3.68,2.4,1.91,5.44.43,8.1,1.67l18.23,11.43c1.5,1.06.33,3.36-1.4,2.9-.56-.15-1.58-.9-2.14-1.24-3-1.83-5.88-3.87-8.89-5.68ZM25.01,33.07v-6.95c0-.34-.85-1.11-1.12-1.38l-7.26-6.19v3.57c0,.2-.47,1.4-.6,1.65-1.01,1.89-3.06,2.28-4.65,3.42l13.64,5.88Z"/>
      <path class="cls-1" d="M32.09,1.2c3.98,3.78-2.13,9.91-5.92,5.92-3.71-3.9,2.02-9.62,5.92-5.92Z"/>
    </g>
  </g>
</svg>