<?xml version="1.0" encoding="UTF-8"?>
<svg id="Layer_2" data-name="Layer 2" xmlns="http://www.w3.org/2000/svg" viewBox="0 0 52.24 26">
  <defs>
    <style>
      .cls-1 {
        fill: #b87333;
      }
    </style>
  </defs>
  <g id="Layer_1-2" data-name="Layer 1">
    <g>
      <path class="cls-1" d="M8.32,25.23c-.22-.23-.37-.63-.55-.91l-.08-22.44c.14-.67,1.11-1.63,1.77-1.77.75-.15,5.02-.15,5.77,0,.86.18,1.78,1.29,1.8,2.19l-.07,21.76c-.16.78-1.05,1.7-1.86,1.83-1.04.16-4.27.13-5.37,0-.5-.05-1.06-.31-1.41-.67Z"/>
      <path class="cls-1" d="M37.01.11c.75-.15,5.02-.15,5.77,0,.66.13,1.63,1.1,1.77,1.77l.04,21.95c-.07.82-1.03,1.88-1.81,2.04s-5.02.15-5.77,0-1.64-1.13-1.77-1.92l-.04-21.63c.02-.9.94-2.02,1.8-2.19Z"/>
      <path class="cls-1" d="M47.13,3.77h3.23c.06,0,.72.31.84.39.76.51.87,1.28.94,2.14.33,4.45-.24,9.32-.02,13.82.05.82-.97,2.09-1.75,2.09h-3.23l-.23-.23V4l.23-.23Z"/>
      <path class="cls-1" d="M5.19,3.77v18.44H1.88c-.06,0-.72-.31-.84-.39-.71-.49-.88-1.17-.94-1.98-.34-4.55.26-9.53.02-14.13-.01-.75,1.06-1.93,1.75-1.93h3.3Z"/>
      <polygon class="cls-1" points="20.51 9.45 31.73 9.45 31.96 9.68 31.96 16.29 31.73 16.52 20.51 16.52 20.28 16.29 20.28 9.68 20.51 9.45"/>
    </g>
  </g>
</svg>