<?xml version="1.0" encoding="UTF-8"?>
<svg id="Layer_2" data-name="Layer 2" xmlns="http://www.w3.org/2000/svg" viewBox="0 0 40 39.92">
  <defs>
    <style>
      .cls-1 {
        fill: #333;
      }
    </style>
  </defs>
  <g id="Layer_1-2" data-name="Layer 1">
    <path class="cls-1" d="M21.61,6.76v5.09c1.78.41,3.26,1.3,4.54,2.61l4.43-2.48c-.21-.7-.06-1.19.07-1.86.16-.82,1-4.35,1.44-4.81.95-1.03,2.96-.28,2.87,1.24-.08,1.32-1.48,4.15-1.02,5.3.1.24.35.44.58.54,1.2.53,4.32.78,5.05,1.7.86,1.09-.02,2.73-1.28,2.66-.91-.05-3.75-.86-4.68-1.21-.53-.2-.98-.46-1.46-.75l-4.3,2.47c.48,1.79.56,3.63-.02,5.41l4.32,2.54c.49-.28.93-.55,1.46-.75.97-.35,3.34-1.05,4.32-1.18,2.07-.29,2.81,2.2,1.19,3.07-1.17.62-3.33.71-4.6,1.27-.69.3-.73.88-.67,1.56.12,1.22,1.18,3.41,1.11,4.5-.11,1.61-2.46,2.14-3.18.45-.38-.9-1.29-4.38-1.32-5.31-.01-.28.15-.53.13-.8l-4.43-2.48c-1.24,1.32-2.77,2.21-4.54,2.61v5.09c.29.13.64.24.9.42.68.47,3.32,3.07,3.76,3.74.71,1.06.19,2.34-1.08,2.54-1.84.29-3.89-3.83-5.27-3.76-.95.05-2.92,2.74-3.84,3.39-1.66,1.17-3.57-.6-2.36-2.24.54-.74,2.96-3.16,3.71-3.67.26-.18.61-.29.9-.42v-5.09c-1.78-.38-3.27-1.32-4.54-2.61l-4.43,2.48c.04.37.13.63.11,1.03-.05.84-.98,4.39-1.34,5.17-.73,1.6-3.14,1-3.15-.65,0-1.1.93-3.09,1.09-4.28.09-.7.09-1.34-.65-1.66-1.23-.54-4.39-.75-5.07-1.8-.79-1.22.34-2.72,1.66-2.53.97.14,3.35.83,4.32,1.19.53.2.98.46,1.46.75l4.3-2.47c-.5-1.79-.5-3.56-.05-5.36l-4.26-2.58c-.6.39-1.16.63-1.84.87-.8.28-3.7,1.1-4.41,1.1-1.3-.01-1.94-1.63-1.24-2.62.65-.92,3.97-1.24,5.13-1.75.69-.3.73-.88.67-1.56-.12-1.22-1.18-3.41-1.11-4.5.11-1.61,2.47-2.14,3.18-.45.39.92,1.29,4.35,1.32,5.31.01.28-.15.53-.13.8l4.43,2.48c1.27-1.3,2.75-2.2,4.54-2.61l.02-5.02c-.03-.11-.74-.35-.92-.48-.78-.54-3.49-3.12-3.85-3.89-.77-1.63.87-2.96,2.32-2.19.9.47,2.3,2.55,3.26,3.23.6.43,1.02.43,1.63,0,1.03-.73,2.24-2.63,3.27-3.23,1.41-.83,2.94.44,2.45,1.95-.26.79-3.2,3.6-3.99,4.14-.26.18-.61.29-.9.42ZM19.18,15.02c-6.23.84-5.24,10.74,1.45,9.95s5.38-10.88-1.45-9.95Z"/>
  </g>
</svg>