<?xml version="1.0" encoding="UTF-8"?>
<svg id="Layer_2" data-name="Layer 2" xmlns="http://www.w3.org/2000/svg" viewBox="0 0 35.22 40">
  <defs>
    <style>
      .cls-1 {
        fill: #333;
      }
    </style>
  </defs>
  <g id="Layer_1-2" data-name="Layer 1">
    <g>
      <path class="cls-1" d="M2.3,16.74c-.06,0-.2.2-.36.14.15-5.41,3.36-10.4,8.06-12.98.4-.22,1.33-.74,1.71-.86.27-.08.19.05.21.21.47,3.82.53,7.71,1.03,11.53l.62.54c.73-.09.8-.59.78-1.22-.16-3.77-.92-7.73-1.11-11.52.04-.95.75-2,1.65-2.35.78-.3,4.57-.3,5.37-.04,1.01.33,1.73,1.45,1.76,2.49-.13,3.74-1.08,7.87-1.12,11.56-.02,1.25,1.17,1.44,1.43.42.47-3.78.54-7.63,1.01-11.41.02-.16-.05-.29.21-.21.55.17,1.72.84,2.26,1.17,4.38,2.65,7.37,7.51,7.52,12.67-.15.05-.31-.14-.36-.14H2.3Z"/>
      <path class="cls-1" d="M8.64,24.89c1.4,6.51,9.18,9.09,14.55,5.32,1.8-1.27,2.92-3.26,3.52-5.35h5.83c.21,1.01,2.43.86,2.37,2.07l-2.04,5.03c-.61.58-2.24-.48-3-.4-.93,1.26-2.02,2.47-3.36,3.32-.3.5,1.2,2.5.32,3.1-1.09.18-4.26,2.1-5.12,2.01-.73-.07-1.1-1.91-1.64-2.35-1.6.21-3.2.27-4.8-.02-.53.08-.93,2.46-1.83,2.37l-5.08-2.07c-.7-.66.68-2.56.4-3.04-1.32-.86-2.45-2.03-3.36-3.31-.77-.08-2.39.98-3,.4L.41,27.19c-.38-1.51,2.04-1.22,2.33-2.33l5.9.02Z"/>
      <path class="cls-1" d="M2.34,18.2l30.35-.04c3.41.37,3.33,4.96,0,5.28H2.59c-3.34-.34-3.47-4.68-.25-5.24Z"/>
    </g>
  </g>
</svg>